<svg xmlns="http://www.w3.org/2000/svg" viewBox="0 0 413.59 105.88"><defs><style>.cls-1{fill:#bbbdbf;}</style></defs><title>beneden</title><g id="Layer_2" data-name="Layer 2"><g id="Layer_1-2" data-name="Layer 1"><path class="cls-1" d="M292.41,30.23a5.93,5.93,0,0,0,5.39-.84c2.82-1.8,5.49-4.26,9.49-2.08l-.11-.87-3.95-1.14c1.47-2.65,2.79-5.16,4.24-7.61s2.59-6.11,4.83-7.17,5.53.62,8.36,1.15q11.52,2.17,23,4.4c.89.17,1.76.47,3.14.85-5.26,9.53-11.19,18.55-10.78,30.15l7.81.65-1.42-2.29s.15-.17.19-.15c1.12.72,1.74.41,2.29-.8,1-2.24,2.24-4.41,3.62-7.1.71,6.22,5.23,8.42,9.46,10.35,7.32,3.36,15.24,4,23.23,3.55a19,19,0,0,0,3.5-1c-.78,2.86-1.48,5.49-2.22,8.11-.45,1.62,0,2.53,2.05,2.41l-.39-2.54c.59,3.67,3.65,3.24,6.56,3.42l-5-6.57,2.41,1.18.91-4.38c.74,2.84,1.32,5.57,2.2,8.2.32,1,.87,2.1,2.71,1.37.91-.36,2.46.91,3.71,1.45,1.67-7-3.9-9.5-7.93-13.11l6.09,3.31,1.24-3.8c-.41,3.47-.23,6.68,2.45,9.47l2.46-2-2.46,6.88,7-.65-2.14-2.33c.15-.38.51-.93.4-1-.93-1-1.93-1.85-2.92-2.76l.9-1.38,2.75,3.48a8.38,8.38,0,0,0,.11-9c2.18,2.07,2.61,4.55,2.09,7.37-.36,2-1.44,4,1.11,5.67.65.42.31,2.38.44,3.74h-2.65c0,.44-.08.91,0,1,3.26,1.34,2.69,4.15,2.68,6.77,0,7.52-.05,15-.07,22.57H6.22q0-15.8.09-31.57,0-9.44,0-18.86V36.36c5.63-2.55,10.63-3.28,15.28.27l-1.19.48.06.82,3.42-.23-.66-1.55c.32,0,.72-.19.79-.09.59.82,1.12,1.68,2.07,3.15,1.91.12,3,1.56,2,4.49-.14.42.64,1.16,1,1.74.5.77,1,1.53,1.81,2.72-1.55.51-2.88.86-4.14,1.39a2.54,2.54,0,0,0-1.4,1.29c-1,3.11-2.81,4.46-5.77,3l-2.47,3c2.69,1.39,3.5,6,8.17,6v-9.3l2.53.91c-2.89,2.29-2.27,5.31-1.91,8,.1.75,2.67,1.87,3.86,1.63a5.29,5.29,0,0,1,5.37,1.76A25,25,0,0,0,39,68.51v-.92c1.25-.3,2.58-1,3.73-.8,3.28.63,6.37.89,9.31-1.14s6-4,9-6c.37-.25.51-.84.76-1.28-.47-.23-.94-.68-1.39-.66-2.79.08-5.57.17-8.34.44a10.86,10.86,0,0,0-7.8,4.74c-.88,1.19-1.74,2.85-3.08,1.48-.89-.9-.8-2.94-.77-4.45,0-.49,1.19-1.1,1.94-1.4,4.21-1.68,8.42-3.38,12.69-4.87,1.12-.39,2.54.15,3.72-.15.61-.16,1.55-1.4,1.4-1.83q-2.11-6.18-4.6-12.24c-.95-2.32-3.17-2.51-4.53-1-2.06,2.21-4.9,2.11-7.24,3.37a40.68,40.68,0,0,1-7.05,2.59,6.1,6.1,0,0,1-3.27.33,4.09,4.09,0,0,1-2.17-2.07c-.33-.69-.24-2.22.2-2.49.69-.43,1.85,0,2.8-.11,2.74-.21,5.47-.45,8.2-.75a2.17,2.17,0,0,0,1.17-.73c5.41-5.7,12.82-6.81,19.9-8,8.17-1.35,15.17-4.95,21.94-9.23,6.13-3.86,12.12-8,16.8-13.66a12.65,12.65,0,0,1,3.43-2.3,68.84,68.84,0,0,0,6.49-3.85c2.9-2.2,6.06-1.66,7.34,1.75,1.7,4.51,3.22,9.09,4.75,13.67a3.79,3.79,0,0,1,.12,2.18c-1.34,4.28-1,9.45-6.35,11.6A2.25,2.25,0,0,0,117,32.16c-.59,3.8-3.63,5.19-6.49,6.73-2.37,1.28-4.86,2.33-7.24,3.61-3.18,1.71-4.41,4.28-3.41,7.68.93,3.19,2.22,6.27,3.62,10.13l8.84-9.16L116,56.43l.35-.25c-.83-1.71-1.72-3.41-2.45-5.17-.21-.5-.13-1.57.16-1.72a2.56,2.56,0,0,1,2-.08,12.22,12.22,0,0,1,6.2,7.21c.2.55-.48,1.7-1.07,2.2-3.67,3.11-7.44,6.11-11,9.55,3.67-1.38,7.35-2.75,11-4.14a68.12,68.12,0,0,1,8.09-3c2-.47,4.12,0,6.2,0h3.1c2.28,2.22.74,5.73-2.08,6.87-6.11,2.46-12.26,4.86-18.32,7.26,2.9,1.89,6.43,1.34,9.57.59,4.1-1,8.16-2.47,11.27-5.71a13.08,13.08,0,0,1,3.5-2c3.91-2,7.86-4,11.73-6.09a2.7,2.7,0,0,0,1.1-2c.13-2.4,0-4.82,0-7.55l1.9.5q-.82,4-1.49,7.28l15.55-5.37c-1-2.85-1.94-5.54-3.09-8.8l6.91,2.73c1.73,3.39,2.18,3.13,5.37.67s7-4,10.52-5.91c.93-.51,1.82-1.09,2.72-1.64l-.36-.87c-2.94.54-5.86,1.15-8.81,1.62-5.84.93-11.7,1.78-17.55,2.67-2,.31-4.05.59-6.05,1S158.12,46,158,44.16c-1.34-15.4-1.75-22.2-1.6-20.24-.17-2.26,1.07-2.92,3.17-2.48,1.26.27,2.56.35,3.93.53-2.77-.18-1.51,1.84-1.39,2.85s1,1.7,1.61,2.55l.72-.33-2.1.18c.27,1.71.52,3.28.83,5.18l4.3-3.78L165,28.4l8.16-2.12c.07-.72.13-1.42.2-2.16l1.62.64v-3l-6-.33v-.34c2.2,0,4.4.1,6.59,0,1.74-.1,2.42.53,2.13,2.45l-1.85-1.31c0,1.69,0,3,.05,4.22,0,.07.85.26.95.13a13.34,13.34,0,0,0,1-1.75c2.11,3.16,5.55.14,8.1,1.83l.52-1.11L180.5,21.7c3.32-.33,5.59.95,7.26,5.32,1.09,2.86,3.65,3.66,5.88,4.21a5.72,5.72,0,0,0,6.41-3c1.27-2.2,2.33-1.91,4.83-.92,3.94,1.57,8.39,3.74,13,1.23-.63-3.56-1.21-3.95-4.89-3.36-2.36.37-4.75,1.06-6.93-.74h7.15l-4.45-2.76c4.31.65,8,5.84,11.67-.53l-2.34-1.37c1.48-.4,3-.37,3.73-1.11A6.26,6.26,0,0,0,223,15.16c.14-1.27-.33-2.6-.2-3.88.08-.88.8-1.68,1.09-2.57s.34-1.84.6-2.73.53-2.56,1.07-2.69a3.79,3.79,0,0,1,3.21.77c1.14,1.27,1.71,1.21,3.16.38s3.33-.7,4.86-1.36a21.31,21.31,0,0,1,3.69-1.53c1.65-.35,2.06.87,2.55,2.24.23.63,1.58.87,2.43,1.28l.5-.7.66,3.49.81.36,3.3-5.68c2.51-1.44,5.71-4.45,9.79-.8l-.92,3.35,4.52,5.05-2.48,4-6,4.14c1.31,1.76,4.85,1.16,4.21,4.19-2.79-.82-5.64-1-7.7-2.43-1.9-1.28-3-3.82-4.37-5.8l-.69.26c0,.68,0,1.37,0,2.05.07,2.4-1.25,3.84-3.5,3.82-4.09-.05-4.09-.05-4.19,3.63l-5.54.43a6.91,6.91,0,0,0-.94-1c-.06-.05-1,.64-.92.8a5.51,5.51,0,0,0,1,1.55c1.71,2.13,3.77,1.17,5.85.77a13.4,13.4,0,0,1,3.57.09c.54,0,1.07.27,1.61.33,2.94.29,5.88.56,8.94.85v-2l14.83-2.37-2.67-2.1c1.26-3.3,2.46-3.61,5.61-1.32l-1.62,3.11,18.75-2.72,1.42,3.11c.6-.66.93-1.27,1.44-1.53,2.8-1.43,5.65-2.78,9-4.41-1.59,2.11-3.38,3.55-3.84,5.32s.29,4.1.48,5.8c-1.48,1.17-3.75-1.93-3.84,1.52-.67-1.07-1.34-2.14-2-3.21l-1,.42c.31,2.33.54,4.67,1,7,.09.45,1.1,1,1.69,1,2.36,0,3.3-1.25,3-3.32Zm-89.8,2.26c.51-.37,1-1.06,1.54-1.07,1.84,0,3.69.21,5.54.29.83,0,1.66-.08,2.49-.13-2.69-1.83-5.15-3.89-8.46-1.79-1.17.73-1.63.09-1.41-1.77l1.32.52c.1-.32.34-.87.27-.92-.45-.27-1.08-.7-1.43-.56a2.89,2.89,0,0,0-1.59,1.41c-.18.53.26,1.32.55,1.94s.84,1.44,1.27,2.16c-3,0-6.29-.79-9.07,0s-5.77,2.79-5.48,6.74c3.61,1.54,6.23.62,9.76-3.79l-5.54,2.66-.47-1.17c2.58-.94,5.17-1.83,7.72-2.85A20.28,20.28,0,0,0,202.61,32.49ZM72.18,78.9c-2.47-4-4.63-7.18-6.53-10.55-2.61-4.6-3.37-4.84-7.84-1.84a5.71,5.71,0,0,1-1.24.61l-15,5.37A9.72,9.72,0,0,0,50,74c1.31-.29,2.91-.61,4-.12a26,26,0,0,1,5.8,3.75,5.3,5.3,0,0,0,6.46.61,4.79,4.79,0,0,1,2.51-.16A31,31,0,0,1,72.18,78.9ZM186,28.14v-.65h-7.25l.88,3-4.14.24c.39,3.29.74,6.2,1.16,9.77,1.09-1.17,1.72-1.85,2.36-2.52,1.8,2.48,3,2.7,6.12.75l-6.53-2.34c-.16-1.06-.4-2.7-.69-4.61l1-.45c1.91,2.49,3.18,5.65,7.7,5.71-2.06-2.88.63-6.69-3.14-8.54ZM175.47,40.9c-.28-3.35-.54-6.34-.84-9.84-2.36,3.91-4.42,7.31-6.43,10.61ZM300.76,30.43l.25,1.26c2.62.49,5.23,1,7.86,1.43.54.08,1.18-.45,1.77-.7-.41-.43-.73-1.09-1.23-1.25a33.12,33.12,0,0,0-5.61-1.48C302.84,29.56,301.78,30.16,300.76,30.43Zm-134.68,13c8.2,1,9.76.65,12.19-2.26-1.31.41-2.24.67-3.15,1-.64.23-1.68.9-1.82.75-1.65-1.92-3.61-.41-5.38-.54C167.34,42.28,166.69,43,166.08,43.4Zm156.7-7.58c-1.76-3.28-8.21-4.38-10-2Zm1.15.31L332,37.27C329,33.54,326.44,33.23,323.93,36.13ZM253.35,2.39a32.93,32.93,0,0,0,3.41,1.9c.53.22,1.26,0,1.89-.07-.1-.75.07-1.8-.36-2.18C256.68.62,255,.89,253.35,2.39ZM89,74.92l6-5.81C91.77,69.61,89.87,71.39,89,74.92Zm-78.63-21-.22.39,1.29,1.16-.22.42-1.69-.45c0,.34,0,.68-.07,1l5.44.25L15,55.64Zm153-9.51c.6-3,1.55-6.1,0-9Z"/><path d="M293.62,36.59a6,6,0,0,0,5.53-.87c2.89-1.86,5.64-4.41,9.74-2.15l-.11-.9-4-1.19c1.5-2.74,2.86-5.34,4.34-7.87s2.66-6.33,5-7.43,5.67.64,8.57,1.19q11.82,2.25,23.63,4.55c.92.18,1.81.49,3.22.88C344.06,32.67,338,42,338.4,54l8,.68L345,52.33s.16-.18.2-.15c1.15.74,1.78.42,2.35-.83,1.06-2.33,2.29-4.57,3.71-7.35.73,6.44,5.37,8.71,9.71,10.72,7.51,3.47,15.63,4.13,23.83,3.67a19,19,0,0,0,3.59-1c-.8,3-1.52,5.68-2.28,8.4-.46,1.68,0,2.62,2.1,2.5l-.4-2.63c.61,3.79,3.75,3.35,6.73,3.54-1.61-2.13-3.22-4.27-5.15-6.81l2.48,1.22.94-4.53c.75,2.94,1.34,5.77,2.25,8.49.33,1,.9,2.18,2.78,1.42.93-.38,2.53,1,3.81,1.5,1.71-7.25-4-9.83-8.15-13.57l6.26,3.42L401,56.4c-.42,3.59-.23,6.92,2.51,9.81L406,64.15l-2.53,7.13,7.2-.67-2.19-2.42c.15-.38.52-1,.41-1.07-1-1-2-1.92-3-2.87l.91-1.42,2.83,3.6a8.75,8.75,0,0,0,.11-9.29c2.24,2.15,2.68,4.72,2.15,7.64-.38,2-1.48,4.17,1.13,5.87.67.44.32,2.46.46,3.87h-2.72c0,.46-.08.94,0,1,3.34,1.39,2.76,4.3,2.74,7q0,11.69-.07,23.36H0Q0,89.54.09,73.19c0-6.51,0-13,0-19.53V42.93c5.77-2.64,10.91-3.39,15.68.29l-1.23.49.06.86,3.51-.24-.68-1.61c.33,0,.74-.19.81-.09.61.84,1.15,1.74,2.13,3.26,2,.13,3.09,1.61,2.09,4.65-.14.44.65,1.2,1,1.8.51.8,1,1.59,1.86,2.82-1.6.52-3,.88-4.25,1.43a2.67,2.67,0,0,0-1.44,1.34c-1,3.22-2.88,4.63-5.91,3.1l-2.54,3.14c2.76,1.43,3.59,6.17,8.38,6.17V60.72l2.59.94c-3,2.37-2.32,5.49-1.95,8.27.1.78,2.73,1.94,3.95,1.69a5.4,5.4,0,0,1,5.51,1.83,25.73,25.73,0,0,0,3.93,2.78v-1c1.28-.3,2.65-1,3.83-.82,3.37.65,6.54.92,9.55-1.18s6.2-4.12,9.27-6.23c.38-.26.52-.88.77-1.33-.47-.24-1-.7-1.42-.69-2.86.09-5.72.18-8.56.46a11.14,11.14,0,0,0-8,4.91c-.9,1.23-1.78,3-3.16,1.53-.91-.93-.82-3-.79-4.61,0-.5,1.22-1.13,2-1.44,4.32-1.75,8.64-3.51,13-5.05,1.14-.4,2.6.16,3.81-.15.63-.17,1.58-1.45,1.43-1.9-1.44-4.27-3-8.49-4.71-12.67-1-2.4-3.26-2.6-4.66-1.08-2.11,2.29-5,2.18-7.42,3.49a40.72,40.72,0,0,1-7.24,2.68,6.19,6.19,0,0,1-3.35.34,4.14,4.14,0,0,1-2.22-2.14c-.34-.72-.25-2.3.2-2.58.71-.44,1.9,0,2.87-.11,2.81-.22,5.62-.47,8.42-.78a2.17,2.17,0,0,0,1.19-.75c5.55-5.91,13.16-7.06,20.43-8.28,8.37-1.4,15.56-5.13,22.5-9.55,6.29-4,12.43-8.25,17.24-14.15a12.85,12.85,0,0,1,3.51-2.38,71.49,71.49,0,0,0,6.66-4c3-2.28,6.22-1.72,7.54,1.81,1.74,4.68,3.3,9.42,4.88,14.15a4,4,0,0,1,.11,2.26c-1.37,4.43-1.07,9.79-6.51,12a2.32,2.32,0,0,0-1.22,1.53c-.59,3.93-3.72,5.37-6.65,7-2.43,1.32-5,2.41-7.42,3.74C96.28,51.07,95,53.73,96,57.24c1,3.31,2.28,6.51,3.72,10.5l9.06-9.48,3.79,5.46.36-.26c-.85-1.77-1.77-3.53-2.51-5.35-.22-.52-.14-1.62.16-1.78a2.6,2.6,0,0,1,2.08-.08,12.54,12.54,0,0,1,6.36,7.46c.21.57-.48,1.76-1.09,2.28-3.77,3.22-7.64,6.33-11.27,9.89,3.77-1.43,7.55-2.85,11.31-4.29,2.77-1.06,5.45-2.44,8.3-3.13,2-.48,4.23,0,6.36,0,1,0,2,0,3.18,0,2.34,2.3.76,5.94-2.13,7.11-6.28,2.55-12.58,5-18.8,7.52,3,2,6.6,1.39,9.82.62,4.2-1,8.37-2.56,11.56-5.92a13.38,13.38,0,0,1,3.59-2.09c4-2.1,8.07-4.13,12-6.31a2.74,2.74,0,0,0,1.13-2c.14-2.49.06-5,.06-7.82l1.94.52c-.56,2.77-1.07,5.29-1.52,7.54L169.48,62c-1-2.94-2-5.74-3.17-9.11l7.09,2.83c1.77,3.51,2.24,3.24,5.51.7s7.18-4.11,10.79-6.13c1-.53,1.87-1.13,2.8-1.7l-.38-.9c-3,.56-6,1.2-9,1.68-6,1-12,1.84-18,2.77-2.08.32-4.16.6-6.21,1s-3-.32-3.19-2.21q-.9-10.47-1.64-20.95c-.17-2.34,1.09-3,3.25-2.57,1.3.27,2.63.36,4,.55-2.85-.19-1.55,1.9-1.44,2.95s1.08,1.76,1.66,2.64l.74-.34-2.15.19c.28,1.76.53,3.39.84,5.36l4.42-3.91-2.46-.24,8.37-2.19c.07-.75.13-1.47.2-2.24l1.67.66V27.86L167,27.52v-.36c2.25,0,4.51.11,6.76,0,1.78-.11,2.48.55,2.19,2.54L174,28.31c0,1.75,0,3.06,0,4.36,0,.07.88.28,1,.14A13.07,13.07,0,0,0,176,31c2.17,3.28,5.71.15,8.32,1.9l.53-1.14-6.08-4c3.4-.35,5.73,1,7.44,5.51,1.12,3,3.75,3.79,6,4.36a5.87,5.87,0,0,0,6.59-3.07c1.29-2.28,2.39-2,4.95-1,4.05,1.62,8.61,3.87,13.3,1.27-.65-3.68-1.25-4.09-5-3.48-2.42.39-4.87,1.1-7.11-.76h7.34l-4.57-2.86c4.42.67,8.24,6,12-.55l-2.41-1.42c1.52-.41,3.08-.38,3.83-1.15A6.46,6.46,0,0,0,222.37,21c.14-1.32-.34-2.7-.21-4,.09-.91.83-1.74,1.13-2.66s.34-1.91.61-2.83.54-2.65,1.1-2.79a3.91,3.91,0,0,1,3.29.8c1.17,1.32,1.75,1.25,3.24.39s3.42-.72,5-1.4a21.46,21.46,0,0,1,3.79-1.59c1.69-.36,2.11.91,2.61,2.32.23.66,1.62.9,2.49,1.33l.52-.73c.22,1.2.45,2.41.68,3.61l.82.38,3.39-5.89c2.58-1.49,5.86-4.6,10-.82l-.94,3.47,4.64,5.23c-.95,1.55-2,3.27-2.55,4.19l-6.14,4.29c1.34,1.82,5,1.19,4.32,4.33-2.86-.84-5.79-1.07-7.91-2.51-1.94-1.33-3-3.95-4.48-6l-.7.26c0,.71,0,1.42,0,2.13.08,2.48-1.28,4-3.59,3.95-4.19-.05-4.19-.05-4.3,3.76l-5.68.44a7,7,0,0,0-1-1c-.06-.05-1,.67-.95.82a5.6,5.6,0,0,0,1,1.62c1.75,2.19,3.87,1.21,6,.79a14.16,14.16,0,0,1,3.67.09c.55,0,1.09.29,1.64.34,3,.31,6,.59,9.18.89v-2l15.21-2.46-2.73-2.17c1.29-3.42,2.52-3.74,5.74-1.37l-1.66,3.22,19.25-2.81,1.45,3.21c.62-.68.95-1.31,1.47-1.58,2.88-1.48,5.81-2.88,9.23-4.56-1.63,2.18-3.47,3.67-3.94,5.51s.3,4.24.49,6c-1.51,1.21-3.84-2-3.94,1.57l-2.05-3.32-1,.44c.32,2.4.56,4.83,1,7.21.09.46,1.13,1,1.74,1,2.42,0,3.38-1.29,3.05-3.43Zm-92.13,2.35c.53-.39,1-1.11,1.58-1.11,1.89,0,3.79.21,5.68.29a24.38,24.38,0,0,0,2.56-.13c-2.76-1.89-5.28-4-8.68-1.86-1.2.77-1.67.1-1.45-1.83l1.36.54c.1-.33.35-.91.27-1-.45-.28-1.1-.73-1.46-.58a3,3,0,0,0-1.64,1.46c-.18.54.27,1.36.57,2s.86,1.5,1.3,2.25c-3.12-.05-6.45-.82-9.3,0s-5.92,2.88-5.62,7c3.7,1.6,6.39.65,10-3.92L191,44.87l-.49-1.21c2.65-1,5.31-1.9,7.92-2.95A22.39,22.39,0,0,0,201.49,38.94ZM67.68,87c-2.54-4.1-4.76-7.44-6.71-10.92-2.67-4.77-3.45-5-8-1.91a5.57,5.57,0,0,1-1.27.63c-5.11,1.86-10.22,3.7-15.36,5.56a10,10,0,0,0,8.59,1.55c1.34-.3,3-.64,4.12-.13a26.36,26.36,0,0,1,6,3.88,5.42,5.42,0,0,0,6.63.64,4.71,4.71,0,0,1,2.57-.17A29.24,29.24,0,0,1,67.68,87ZM184.46,34.42v-.67H177l.9,3.13-4.25.25c.4,3.4.75,6.42,1.19,10.11l2.41-2.61c1.86,2.58,3,2.8,6.28.79L176.86,43c-.16-1.1-.41-2.8-.71-4.78l1-.46c2,2.58,3.27,5.85,7.91,5.91-2.12-3,.64-6.92-3.23-8.84ZM173.65,47.64c-.29-3.47-.56-6.57-.86-10.19-2.43,4-4.54,7.57-6.6,11ZM302.19,36.8l.25,1.3c2.69.51,5.37,1.08,8.07,1.49.56.08,1.21-.47,1.81-.74-.41-.44-.75-1.12-1.25-1.29A33.27,33.27,0,0,0,305.31,36C304.33,35.9,303.23,36.52,302.19,36.8ZM164,50.23c8.41,1,10,.67,12.51-2.34-1.34.42-2.3.69-3.23,1-.66.23-1.73.93-1.87.77-1.69-2-3.7-.42-5.52-.56C165.3,49.07,164.64,49.84,164,50.23Zm160.77-7.85c-1.8-3.39-8.42-4.54-10.3-2.06Zm1.18.32,8.32,1.18C331.11,40,328.53,39.7,326,42.7ZM253.54,7.76a34.26,34.26,0,0,0,3.51,2c.54.23,1.29,0,1.94-.08-.11-.77.06-1.86-.37-2.25C257,5.93,255.24,6.21,253.54,7.76ZM84.88,82.87l6.2-6C87.77,77.37,85.82,79.21,84.88,82.87ZM4.21,61.12,4,61.53l1.32,1.19-.23.44L3.35,62.7c0,.35-.05.7-.07,1L8.86,64,9,62.91Zm157-9.84c.62-3.15,1.59-6.32,0-9.31Z"/></g></g></svg>