<svg xmlns="http://www.w3.org/2000/svg" viewBox="0 0 414.04 118.08"><defs><style>.cls-1{fill:#bbbdbf;}</style></defs><title>boven</title><g id="Layer_2" data-name="Layer 2"><g id="Layer_1-2" data-name="Layer 1"><path class="cls-1" d="M387.35,62.13l-3.8-2.87,6.47.49.32-.85a16.26,16.26,0,0,0-3.73-1.52c-2.71-.35-5.23-.69-6.91-3.31-.37-.57-1.87-.81-2.72-.61a19,19,0,0,0-5.08,1.85A7.93,7.93,0,0,1,366,56.5c-1.16-.25-2.57.72-4.05.65l16.46-4.76c-.35-.47-.47-.82-.64-.84-3.3-.47-6.74-1.67-9.89-1.14-3.49.59-6.77,2.17-10.52.46l-.95,14.5-.72.23c-1.31-2.62-4.48-3.66-5-7.12-.2-1.35-2.11-2.36-2.93-3.71-1.86-3-3.81-5.8-7.42-7-2.44-.84-3.45-.38-4.08,2.13-.36,1.45-.85,3.88-1.63,4-3,.55-6.07,3.14-9.12.16a8,8,0,0,0-1.13-.71c-.37,1.53-.69,2.87-1.07,4.42l-2.69-.57c.68-5,1.34-9.74,2.06-15-4.91.21-9-3.75-14.16-1.68-.87.36-2.36-.34-3.37-.9-3.08-1.7-6.26-2.68-9.79-1.89-4.26,1-6.8-.29-8.81-4.21l-.8,5.6,17,2.13c2.37.29,4.75.55,7.12.8,3.91.43,3.91.42,3.64,4.29a9.39,9.39,0,0,1,2.2.18,8.55,8.55,0,0,1,1.8,1.15c-.62.39-1.22,1.1-1.85,1.13q-14.16.81-28.31,1.41c-.72,0-1.48-.72-2.22-1.11.7-.42,1.39-1.17,2.12-1.21,6.86-.39,13.73-.66,20.6-1a6.65,6.65,0,0,0,3.51-.87l-26-3.06a39,39,0,0,1-.89,5c-.27.87-1.07,2.19-1.7,2.23-2.09.12-1.31-1.6-1.24-2.7s.45-2.45.53-3.68c.11-1.79.44-3.67-1.77-4.67-.47-.21-.67-1.07-.95-1.65-1-2.1-1.82-4.35-4.81-4.1a1.21,1.21,0,0,1-.83-.19c-4.3-4-10-3.13-15.1-4.26-2.58-.56-5.34-.78-7.85,1l1.86-.29-.79,3.74c2.21.1,4.43-3.42,6.55-.1,2-1,4-3.69,5.65.51.31.8,1.83,1.13,3.22,1.91L271.93,34V44L256.77,40.7l-.87,1.13L253.15,40l-.71.69,2.44,2.74c-3.7.59-1.9-3.5-3.67-4.9l-.7,4.42-1.69-3.44c-.4,1.48-.68,2.51-1.06,3.89-1.61-1.92-2.79-3.83-4.42-5.17-3-2.46-5.7-2.11-8.48.52a6.09,6.09,0,0,1-2.06.78l-.18-.68,3.46-2c-4.56-1.08-9.3-3.89-12.21,2.63l-.57-1,3-3.11-.34-.71-7.71,2.21c-1-4.89,2.85-1,4-2-3.61-3.1-9.66-2.78-13.17.58,1.89.67,3.89,1.24,5.76,2.07,2.45,1.08,4,3,4,5.78a6,6,0,0,1-4.1,5.65c-1.58.66-2.92,2-4.93,1.17a1.88,1.88,0,0,0-1.69.72c-1,4.12-4.44,7.91-1.73,12.19-2.35,1-4.44,1.84-6.57,2.66a2.74,2.74,0,0,1-1.67.21c-7.44-2.45-14.87-4.91-22.24-7.53-.66-.24-1.2-1.61-1.31-2.51-.56-4.35-.95-8.73-1.42-13.09-.07-.63-.25-1.24-.39-1.91-1.88,1-1.93,3.33-.58,13.4-2,.9-3.91,1.8-5.85,2.57a3.22,3.22,0,0,1-2,.15c-5.92-1.8-11.83-3.66-17.73-5.54-1.09-.34-2.11-.9-3.2-1.26-1.57-.52-2.68-1.28-2.72-3.19a9.63,9.63,0,0,0-.81-2.6L137.17,46h0c1.27-2.1-.74-1.86-1.52-1.74-2.2.35-4.36,1-6.77,1.65l1.19,2.26-4.34.87.89-3.52c-2.35.54-4.52.59-6.2,1.53-2.32,1.28-4.27,3.23-6.51,5,1.32,3.28.15,6.74-1.83,10.48,3.64-.86,6,0,8.22,2.48,1.86,2,4.5,3.38,7.15,5.28-.22,1.51-.52,3.64-.76,5.3l-11.46,4.77c-.52-3.09-2.85-.46-4.41-1.4l4.36-1.08-.32-2.16H111l-.08-.64,4-.47.08-.37-4.39-.69.06-.7,4.06.38c-3.29.39-6.15-3.82-9.73-.91-.4.32-1.46,0-2.15-.23-1.27-.4-2.48-1-3.74-1.45-4.82-1.73-4.82-1.72-7.38,1.75l-8.5.53,1.61,2.43-3.12.59a18,18,0,0,0,.67-2.24c.53-3.59-.18-4.24-3.65-3.58-2.5.47-5.27.39-6,3.79-.08.38-1.09.74-1.7.79-2.92.23-5.84.41-8.77.47-1.44,0-2.34.16-3,1.84-1,2.76-2.86,5.06-6,5.75a1.45,1.45,0,0,0-.76.38c-3.62,4.14-8.79,4.2-13.62,5.09-.61.11-1.34-.45-1.92-.66l-2.57,2.84,2.24,1-.23.64L31.71,90.4c.27,1.69.52,3.27.78,4.86l2.78,4.39a9.37,9.37,0,0,0,2.27.15c1.92-.25,3.66-.37,4.53-2.92,2.3-6.72,8.64-9.5,14.29-6.64a9.44,9.44,0,0,1,5,6.59c1.94,8-2.44,13.63-10.47,13.36a9.34,9.34,0,0,1-8.71-5.94c-1.37-3.07-2-3.39-5.35-2.41-.54.16-1.09.27-1.59.38-.82,2.56-1.61,5.06-2.51,7.9-4.88.71-10.16,1.45-15.42,2.25a16.47,16.47,0,0,0-2.58.83l1.55,2.55c-2,3-3.12,3.11-5.89.34l1.64-2.15C8.92,112.51,4,115,4.27,117.84l-.74.24c-.31-.93-.62-1.86-.94-2.79l-.38.2c-.55-1-1.58-2-1.58-3.06Q.51,62.69.59,13c0-.56.07-1.12.12-1.89H413.8c.05.66.15,1.47.15,2.29,0,16,0,32.11-.05,48.16a6.72,6.72,0,0,1-1.34,3.08,10.36,10.36,0,0,0-1.65,2.56l2.67-1.2.46.44A17,17,0,0,1,412.76,68c-.92.91-1.89,1.77-2.84,2.65l3.93,1.73L409,75.32l-.91-.33c3.07-1.91.86-3-.36-4.74l-7.51,6,.48.76,5.66-3-.2,2.09-7.93,2.52,4.2-7.66-.62-.6-5.17,4.28,1-2.5c-1.82,0-1.82,0-5.16,4.28l1.92-4.71-4.25-.3c-1.16-2.31-3.74-2-6.4-2.06l7.72-2.81-.9-2.44-5.39,2.07c-.38-.27-.91-.71-1.49-1.07a10.18,10.18,0,0,0-11-.2c-1.05.57-2.55.34-3.92.28,1.62-1.21,2.56-3.1,5.47-2.34,3.31.86,6.89.79,10.36.83.92,0,1.86-1,2.79-1.63-.09.68-.17,1.37-.39,3.06l4.17-3.69-.49-.75ZM117.28,63.81l-.44-1.08-14,2.17,1-2.79c-1,.68-1.57.88-1.64,1.2-.63,3-2.43,3.64-5.2,3.12-.77-.14-1.69.56-2.54.87l.19.81c2.69-.24,5.39-.42,8.07-.74,1.57-.19,2.86-.26,4,1.22a3.76,3.76,0,0,0,2.94.71,61.31,61.31,0,0,0,6.2-1.59l-4.75-.55,0-.42,5.35-.25-2.06-.81Zm95.39-16.14a4.35,4.35,0,0,0,4.49-4.46,4.43,4.43,0,0,0-4.65-4.63,6.18,6.18,0,0,0-3.46,1.68,4.84,4.84,0,0,0-1,3.1A4.35,4.35,0,0,0,212.67,47.67ZM400.94,67.84c3.2-.35,5.76-1.43,7.5-5.06a33.34,33.34,0,0,0-4,.72c-3.29,1.09-6.09,3.32-9.66,3.89-1.17.18-2.15,1.52-3.71,2.7C397.41,71.44,400.86,70.57,400.94,67.84Zm2.55-5.73-.06-1.06c-2.77,0-5.54.12-8.3,0-1.67-.1-3.3-.19-3.47,1.83-.08,1.07.78,2.22,1.28,3.51a27.91,27.91,0,0,1,2.95-2.68c.66-.43,1.75-.92,2.3-.66C400.36,64.05,401.94,63.33,403.49,62.11Zm6.83,1.37-6.56,6.9.57.55C407.18,69.31,410.34,68,410.32,63.48Z"/><path d="M386.77,51.06,383,48.2l6.46.48.32-.84A15.41,15.41,0,0,0,386,46.32c-2.7-.36-5.23-.7-6.91-3.31-.37-.58-1.87-.81-2.72-.62a19,19,0,0,0-5.08,1.86,8,8,0,0,1-5.92,1.19c-1.15-.25-2.57.72-4,.64l16.45-4.76c-.34-.47-.46-.81-.63-.84-3.31-.47-6.75-1.66-9.89-1.13-3.49.59-6.78,2.17-10.52.46l-1,14.5-.71.22c-1.31-2.61-4.48-3.66-5-7.12-.21-1.34-2.11-2.35-2.94-3.7-1.85-3-3.81-5.81-7.41-7-2.45-.84-3.45-.37-4.08,2.13-.36,1.45-.86,3.88-1.64,4-3,.55-6.07,3.13-9.12.16a6.83,6.83,0,0,0-1.13-.72l-1.06,4.43L320,46.13c.68-5,1.34-9.75,2.06-15-4.91.2-9-3.75-14.16-1.68-.87.35-2.36-.35-3.37-.91-3.09-1.7-6.27-2.67-9.79-1.88-4.27.95-6.8-.29-8.81-4.22l-.8,5.6c5.85.74,11.4,1.45,17,2.13,2.37.3,4.74.55,7.12.81,3.91.42,3.91.42,3.63,4.28a8.84,8.84,0,0,1,2.2.19,8,8,0,0,1,1.8,1.14c-.61.4-1.21,1.1-1.85,1.14q-14.14.81-28.3,1.41c-.73,0-1.48-.72-2.23-1.11.71-.42,1.4-1.17,2.12-1.22,6.87-.39,13.74-.65,20.61-1a6.69,6.69,0,0,0,3.51-.88l-26.05-3.06A41.05,41.05,0,0,1,283.8,37c-.27.87-1.08,2.19-1.7,2.22-2.09.12-1.32-1.6-1.24-2.7s.45-2.45.53-3.68c.11-1.78.44-3.66-1.77-4.67-.47-.21-.68-1.07-.95-1.65-1-2.1-1.82-4.35-4.81-4.1a1.2,1.2,0,0,1-.83-.18c-4.31-4-10-3.13-15.1-4.26-2.58-.57-5.35-.78-7.85,1l1.86-.29c-.27,1.28-.51,2.41-.8,3.74,2.22.11,4.44-3.41,6.56-.1,2-1,4-3.69,5.64.52.31.8,1.83,1.12,3.23,1.91l4.79-1.79V33l-15.17-3.32-.86,1.12L252.58,29l-.71.68,2.44,2.75c-3.7.59-1.9-3.5-3.68-4.91l-.69,4.43-1.69-3.45c-.41,1.48-.69,2.52-1.06,3.89-1.62-1.92-2.79-3.82-4.43-5.16-3-2.47-5.69-2.11-8.47.51a6,6,0,0,1-2.07.78l-.18-.68,3.47-2c-4.56-1.08-9.31-3.9-12.21,2.63l-.58-1,3-3.11-.33-.72-7.72,2.22c-1-4.89,2.85-1,4-2-3.6-3.09-9.66-2.77-13.17.59,1.9.67,3.89,1.23,5.77,2.06,2.45,1.09,4,3,4,5.78a6,6,0,0,1-4.1,5.66c-1.59.65-2.93,2-4.93,1.16-.41-.17-1.6.34-1.69.73-1.05,4.11-4.44,7.91-1.73,12.18-2.35,1-4.45,1.85-6.57,2.66a2.77,2.77,0,0,1-1.68.21c-7.43-2.45-14.86-4.9-22.23-7.53-.67-.24-1.2-1.6-1.32-2.5-.56-4.36-.94-8.73-1.41-13.1-.07-.62-.26-1.24-.4-1.9-1.87,1-1.93,3.33-.57,13.4-2,.9-3.92,1.79-5.85,2.57a3.22,3.22,0,0,1-2,.14c-5.93-1.8-11.84-3.66-17.74-5.53-1.08-.35-2.11-.9-3.19-1.26-1.57-.53-2.69-1.29-2.72-3.19a9.88,9.88,0,0,0-.81-2.6l-2.71,1.62h0c1.27-2.1-.73-1.87-1.51-1.74-2.21.35-4.36,1-6.77,1.64l1.18,2.27-4.33.87.89-3.53c-2.35.54-4.52.6-6.21,1.53-2.32,1.29-4.27,3.24-6.5,5,1.31,3.28.15,6.74-1.84,10.49,3.64-.87,6,0,8.23,2.47,1.85,2.05,4.5,3.38,7.15,5.29-.22,1.51-.53,3.63-.77,5.29l-11.46,4.77c-.51-3.09-2.84-.46-4.4-1.39l4.36-1.09-.33-2.16h-3.91l-.09-.64,4-.47.08-.37-4.4-.68.07-.71,4.06.39c-3.3.39-6.15-3.82-9.73-.92-.4.33-1.47,0-2.16-.22-1.27-.41-2.47-1-3.73-1.45-4.82-1.74-4.82-1.73-7.38,1.75l-8.51.53,1.62,2.42-3.12.6a18.26,18.26,0,0,0,.66-2.25c.53-3.58-.17-4.24-3.64-3.58-2.5.48-5.28.4-6,3.8-.07.37-1.09.74-1.69.78-2.92.23-5.85.42-8.77.48-1.44,0-2.35.16-3,1.84-1,2.76-2.87,5.06-6,5.75a1.5,1.5,0,0,0-.77.37c-3.62,4.15-8.79,4.2-13.61,5.09-.61.11-1.35-.45-1.92-.66l-2.58,2.84,2.25,1-.23.65-4.63-1.67c.27,1.7.52,3.27.77,4.86.8,1.27,1.7,2.67,2.79,4.39a8.75,8.75,0,0,0,2.26.16c1.92-.26,3.67-.38,4.54-2.92,2.3-6.72,8.64-9.5,14.29-6.64a9.45,9.45,0,0,1,5.05,6.58c1.93,8-2.44,13.64-10.47,13.37a9.32,9.32,0,0,1-8.71-5.94c-1.37-3.07-2-3.39-5.35-2.41-.54.16-1.09.26-1.6.38-.81,2.56-1.6,5-2.51,7.9-4.87.7-10.15,1.44-15.42,2.24a16.07,16.07,0,0,0-2.57.84l1.54,2.54c-2,3-3.11,3.11-5.89.34.54-.69,1.08-1.41,1.64-2.14-3.15-1.43-8.07,1.09-7.81,3.89L3,107,2,104.23l-.39.19c-.54-1-1.57-2-1.57-3Q-.06,51.63,0,1.89C0,1.33.09.77.14,0H413.23c0,.66.15,1.47.15,2.28,0,16.06,0,32.11-.06,48.17A6.66,6.66,0,0,1,412,53.53a10.76,10.76,0,0,0-1.65,2.56l2.68-1.2.46.43A15.93,15.93,0,0,1,412.18,57c-.91.92-1.89,1.77-2.84,2.65l3.93,1.73-4.82,2.93-.91-.34c3.06-1.9.86-3-.37-4.73l-7.5,5.94.47.76,5.67-3-.2,2.08-7.93,2.53,4.2-7.66-.62-.6-5.17,4.27,1-2.5c-1.81,0-1.81,0-5.16,4.28l1.92-4.71-4.24-.3c-1.17-2.31-3.74-2-6.41-2L391,55.46,390.06,53l-5.39,2.06c-.38-.27-.91-.7-1.49-1.06a10.16,10.16,0,0,0-11-.21c-1.05.58-2.56.34-3.92.29,1.62-1.21,2.56-3.11,5.47-2.35,3.31.87,6.89.8,10.36.84.92,0,1.85-1.06,2.78-1.63-.08.68-.17,1.37-.38,3.05l4.17-3.68-.5-.75ZM116.71,52.75l-.44-1.08-14,2.16,1-2.79c-1,.69-1.57.89-1.63,1.21-.63,3-2.44,3.63-5.2,3.12-.77-.15-1.7.55-2.55.87l.2.8c2.69-.24,5.38-.42,8.06-.74,1.57-.19,2.86-.25,4,1.22a3.68,3.68,0,0,0,2.94.71,58.13,58.13,0,0,0,6.2-1.59l-4.75-.54v-.42l5.35-.26-2.06-.8Zm95.38-16.14a4.36,4.36,0,0,0,4.49-4.47,4.43,4.43,0,0,0-4.64-4.63,6.24,6.24,0,0,0-3.47,1.68,4.93,4.93,0,0,0-1,3.11A4.37,4.37,0,0,0,212.09,36.61ZM400.36,56.78c3.21-.35,5.76-1.43,7.5-5.07a31,31,0,0,0-3.95.73c-3.29,1.08-6.1,3.32-9.66,3.88-1.17.18-2.16,1.52-3.71,2.7C396.84,60.38,400.29,59.51,400.36,56.78Zm2.56-5.73L402.85,50c-2.76,0-5.54.12-8.29-.05-1.67-.1-3.31-.19-3.47,1.83-.09,1.08.78,2.23,1.28,3.52a26.83,26.83,0,0,1,2.95-2.68c.66-.43,1.75-.92,2.29-.66C399.78,53,401.37,52.27,402.92,51.05Zm6.82,1.36-6.56,6.9.57.55C406.61,58.25,409.77,56.94,409.74,52.41Z"/></g></g></svg>