<svg xmlns="http://www.w3.org/2000/svg" viewBox="0 0 414.04 735.98"><defs><style>.cls-1{fill:#bbbdbf;}</style></defs><title>toegevoegd</title><g id="Layer_2" data-name="Layer 2"><g id="Layer_1-2" data-name="Layer 1"><path class="cls-1" d="M292.81,660.36a5.94,5.94,0,0,0,5.4-.84c2.82-1.8,5.49-4.26,9.49-2.08l-.11-.87-3.95-1.14c1.47-2.65,2.79-5.17,4.24-7.61s2.59-6.1,4.83-7.16,5.53.61,8.36,1.15q11.52,2.16,23,4.39c.89.17,1.76.47,3.14.85-5.26,9.52-11.19,18.54-10.78,30.13l7.81.66-1.42-2.29s.15-.17.19-.15c1.12.72,1.74.41,2.29-.8,1-2.24,2.24-4.41,3.62-7.09.71,6.21,5.23,8.4,9.46,10.34,7.32,3.36,15.24,4,23.23,3.54a18.42,18.42,0,0,0,3.5-1c-.78,2.86-1.48,5.49-2.22,8.11-.45,1.62,0,2.53,2.05,2.41l-.4-2.53c.6,3.66,3.66,3.23,6.57,3.41l-5-6.57,2.41,1.18.91-4.37c.74,2.83,1.32,5.56,2.2,8.19.32,1,.87,2.1,2.71,1.37.9-.36,2.46.92,3.71,1.45,1.67-7-3.9-9.49-7.94-13.11l6.1,3.31,1.24-3.8c-.41,3.47-.23,6.69,2.44,9.47l2.47-2c-.76,2.12-1.52,4.24-2.46,6.88l7-.65-2.13-2.33c.15-.37.5-.92.4-1-.93-1-1.94-1.86-2.92-2.77l.9-1.37,2.75,3.47a8.4,8.4,0,0,0,.11-9c2.18,2.08,2.61,4.56,2.09,7.37-.36,2-1.44,4,1.1,5.67.66.42.32,2.37.45,3.74H407c0,.44-.08.91,0,.95,3.26,1.33,2.69,4.15,2.67,6.77q0,11.28-.06,22.55H6.63l.09-31.55q0-9.44,0-18.86V666.48c5.62-2.55,10.63-3.28,15.28.27l-1.2.48.07.83,3.42-.24-.66-1.54c.32,0,.72-.19.78-.1.6.82,1.13,1.68,2.08,3.15,1.91.13,3,1.56,2,4.49-.14.42.63,1.16,1,1.74.5.77,1,1.53,1.81,2.72-1.55.5-2.89.85-4.14,1.38a2.62,2.62,0,0,0-1.4,1.29c-1,3.11-2.81,4.47-5.77,3-.9,1.12-1.65,2-2.47,3,2.69,1.39,3.5,6,8.17,6v-9.29l2.53.91c-2.89,2.28-2.27,5.3-1.91,8,.1.75,2.67,1.87,3.85,1.63a5.3,5.3,0,0,1,5.38,1.76,25,25,0,0,0,3.83,2.69v-.93c1.25-.29,2.58-1,3.73-.79,3.28.63,6.37.89,9.31-1.14s6-4,9-6c.37-.25.51-.84.76-1.27-.47-.24-.94-.68-1.39-.67-2.79.08-5.58.17-8.34.44a10.84,10.84,0,0,0-7.8,4.75c-.88,1.18-1.74,2.84-3.08,1.47-.89-.9-.81-2.93-.77-4.45,0-.49,1.19-1.1,1.94-1.4,4.21-1.68,8.41-3.38,12.69-4.87,1.12-.39,2.54.15,3.72-.14.61-.16,1.55-1.4,1.4-1.83q-2.12-6.18-4.6-12.24c-1-2.31-3.17-2.51-4.54-1-2.05,2.21-4.89,2.11-7.23,3.37a40.68,40.68,0,0,1-7,2.59,6.2,6.2,0,0,1-3.27.33,4.06,4.06,0,0,1-2.17-2.07c-.33-.69-.25-2.22.2-2.49.69-.43,1.85,0,2.8-.11,2.74-.21,5.47-.45,8.2-.74a2.25,2.25,0,0,0,1.17-.74c5.4-5.7,12.82-6.81,19.9-8,8.17-1.36,15.17-5,21.94-9.23,6.13-3.86,12.12-8,16.8-13.66a13,13,0,0,1,3.42-2.29,71.22,71.22,0,0,0,6.5-3.85c2.9-2.21,6.06-1.66,7.34,1.75,1.7,4.51,3.22,9.09,4.75,13.66a3.79,3.79,0,0,1,.12,2.18c-1.34,4.27-1,9.45-6.35,11.6a2.23,2.23,0,0,0-1.18,1.47c-.59,3.8-3.63,5.19-6.49,6.73-2.37,1.28-4.86,2.33-7.24,3.61-3.18,1.71-4.41,4.28-3.42,7.67.94,3.19,2.23,6.28,3.63,10.13l8.83-9.15c1.33,1.88,2.51,3.58,3.7,5.27l.35-.24c-.83-1.72-1.72-3.41-2.45-5.17-.21-.5-.13-1.57.16-1.72a2.56,2.56,0,0,1,2-.08,12.23,12.23,0,0,1,6.2,7.2c.19.55-.48,1.7-1.07,2.2-3.67,3.11-7.44,6.11-11,9.55,3.67-1.38,7.35-2.75,11-4.14a69.91,69.91,0,0,1,8.09-3c2-.47,4.12,0,6.2,0H139c2.27,2.22.74,5.73-2.08,6.86-6.12,2.46-12.26,4.86-18.32,7.26,2.9,1.9,6.43,1.35,9.57.6,4.1-1,8.16-2.47,11.27-5.71a12.82,12.82,0,0,1,3.5-2c3.91-2,7.86-4,11.73-6.09a2.73,2.73,0,0,0,1.1-1.94c.13-2.41.05-4.83.05-7.55l1.9.5q-.82,4-1.49,7.28l15.55-5.38-3.09-8.79,6.91,2.73c1.73,3.39,2.18,3.13,5.37.67s7-4,10.52-5.91c.93-.51,1.82-1.09,2.72-1.64l-.36-.87c-2.94.54-5.86,1.15-8.81,1.62-5.85.93-11.7,1.78-17.55,2.67-2,.31-4.05.59-6.05,1s-2.95-.3-3.11-2.13c-1.34-15.39-1.75-22.18-1.61-20.22-.16-2.26,1.07-2.92,3.18-2.48,1.26.26,2.56.35,3.93.53-2.77-.18-1.51,1.83-1.4,2.85s1.05,1.7,1.62,2.54l.72-.32-2.1.18c.27,1.7.52,3.27.83,5.17l4.3-3.77-2.4-.23,8.16-2.11c.07-.73.13-1.42.2-2.17l1.62.64v-3l-6-.33v-.35c2.2,0,4.4.11,6.59,0,1.73-.1,2.41.53,2.13,2.45l-1.85-1.31c0,1.69,0,2.95.05,4.21,0,.07.85.27.95.14a14.11,14.11,0,0,0,1-1.76c2.11,3.17,5.55.14,8.1,1.83l.52-1.1-5.93-3.85c3.32-.33,5.59.94,7.26,5.32,1.09,2.86,3.65,3.66,5.87,4.21a5.73,5.73,0,0,0,6.42-3c1.26-2.2,2.33-1.92,4.83-.93,3.94,1.57,8.39,3.75,13,1.24-.63-3.56-1.21-4-4.9-3.36-2.35.37-4.74,1-6.92-.74h7.15l-4.45-2.76c4.31.64,8,5.84,11.67-.53L218.46,650c1.48-.4,3-.37,3.73-1.11a6.25,6.25,0,0,0,1.18-3.54c.14-1.28-.33-2.61-.2-3.89.08-.88.8-1.68,1.09-2.56s.34-1.84.6-2.74.53-2.55,1.07-2.68a3.82,3.82,0,0,1,3.21.76c1.14,1.28,1.71,1.21,3.16.39s3.33-.71,4.86-1.36a20.56,20.56,0,0,1,3.69-1.53c1.65-.35,2.06.87,2.55,2.24.22.63,1.58.86,2.42,1.28l.51-.71L247,638l.81.36c1-1.75,2-3.5,3.3-5.68,2.51-1.44,5.71-4.44,9.79-.79l-.92,3.35,4.52,5L262,644.32l-6,4.14c1.31,1.76,4.85,1.15,4.21,4.19-2.79-.82-5.64-1-7.7-2.43-1.9-1.28-2.95-3.81-4.37-5.79l-.69.25c0,.69,0,1.37,0,2.05.07,2.39-1.25,3.84-3.5,3.81-4.09,0-4.09,0-4.2,3.64l-5.53.42a7.9,7.9,0,0,0-.94-1c-.06-.05-1,.64-.93.79a5.46,5.46,0,0,0,1,1.56c1.71,2.12,3.77,1.17,5.85.76a14.29,14.29,0,0,1,3.57.09c.54,0,1.07.28,1.61.33,2.93.3,5.88.57,8.94.86v-2l14.83-2.37-2.67-2.1c1.26-3.3,2.46-3.61,5.6-1.32l-1.61,3.11,18.75-2.72,1.42,3.11c.6-.66.93-1.27,1.43-1.53,2.81-1.43,5.66-2.78,9-4.41-1.6,2.11-3.38,3.54-3.84,5.32s.29,4.1.47,5.8c-1.47,1.17-3.74-1.93-3.83,1.51-.67-1.07-1.34-2.13-2-3.2l-1,.42c.32,2.32.55,4.66,1,7,.1.44,1.11,1,1.7,1,2.36,0,3.3-1.25,3-3.31ZM203,662.62c.51-.38,1-1.06,1.54-1.07,1.84,0,3.69.21,5.54.28a23.18,23.18,0,0,0,2.49-.12c-2.69-1.83-5.15-3.89-8.46-1.8-1.17.74-1.63.1-1.41-1.77l1.32.53c.1-.32.34-.88.27-.92-.45-.27-1.08-.71-1.43-.56a2.89,2.89,0,0,0-1.59,1.41c-.18.52.26,1.32.55,1.93a23.63,23.63,0,0,0,1.27,2.17c-3-.05-6.3-.79-9.07,0s-5.77,2.78-5.48,6.73c3.61,1.54,6.23.62,9.76-3.79l-5.54,2.66-.47-1.17c2.57-.94,5.17-1.83,7.71-2.85A20.71,20.71,0,0,0,203,662.62ZM72.59,709c-2.47-4-4.63-7.17-6.54-10.54-2.6-4.6-3.36-4.84-7.83-1.84a5.71,5.71,0,0,1-1.24.61l-15,5.36a9.75,9.75,0,0,0,8.37,1.5c1.31-.29,2.91-.62,4-.12a25.65,25.65,0,0,1,5.8,3.74,5.31,5.31,0,0,0,6.46.62,4.59,4.59,0,0,1,2.51-.16A30.5,30.5,0,0,1,72.59,709Zm113.83-50.74v-.64h-7.25l.88,3-4.14.25c.39,3.28.73,6.19,1.16,9.76l2.35-2.52c1.81,2.48,3,2.7,6.12.76L179,666.54c-.16-1.07-.4-2.71-.69-4.62l1-.44c1.92,2.49,3.19,5.64,7.71,5.7-2.06-2.88.63-6.68-3.14-8.53ZM175.88,671c-.28-3.35-.54-6.34-.84-9.83-2.36,3.9-4.42,7.3-6.43,10.6Zm125.29-10.47.25,1.26c2.62.5,5.23,1.05,7.86,1.44.54.08,1.17-.46,1.76-.71-.4-.43-.73-1.09-1.22-1.25a32.17,32.17,0,0,0-5.61-1.47C303.25,659.69,302.19,660.29,301.17,660.55Zm-134.68,13c8.2,1,9.76.65,12.19-2.26-1.31.41-2.24.67-3.15,1-.64.23-1.69.9-1.82.75-1.65-1.92-3.61-.41-5.38-.54C167.74,672.4,167.1,673.14,166.49,673.52Zm156.7-7.58c-1.76-3.27-8.21-4.38-10.05-2Zm1.15.31,8.11,1.15C329.35,663.67,326.85,663.36,324.34,666.25Zm-70.59-33.73a34.27,34.27,0,0,0,3.42,1.91c.53.22,1.25,0,1.89-.08-.11-.74.06-1.8-.36-2.17C257.09,630.76,255.4,631,253.75,632.52ZM89.36,705l6-5.81C92.18,699.72,90.28,701.5,89.36,705ZM10.73,684l-.22.39,1.29,1.15-.22.42-1.69-.44c0,.33,0,.67-.07,1l5.44.25.16-1.06Zm153-9.51c.6-3,1.54-6.1,0-9Z"/><path d="M294,666.72a6.07,6.07,0,0,0,5.53-.87c2.89-1.87,5.64-4.42,9.74-2.16l-.11-.9-4.05-1.18c1.5-2.74,2.86-5.35,4.34-7.87s2.66-6.33,5-7.43,5.67.64,8.57,1.19q11.82,2.25,23.63,4.55c.92.18,1.81.49,3.22.88-5.39,9.87-11.48,19.21-11.05,31.21l8,.68-1.46-2.37s.16-.18.2-.16c1.14.74,1.78.42,2.35-.83,1-2.32,2.29-4.56,3.71-7.34.73,6.44,5.37,8.7,9.7,10.71,7.52,3.47,15.64,4.13,23.83,3.67a18.9,18.9,0,0,0,3.6-1c-.8,3-1.52,5.69-2.28,8.4-.46,1.68,0,2.62,2.1,2.49l-.4-2.62c.61,3.79,3.75,3.35,6.73,3.54l-5.15-6.81,2.48,1.22.93-4.53c.76,2.94,1.35,5.77,2.26,8.49.33,1,.89,2.17,2.78,1.42.93-.38,2.52.95,3.81,1.5,1.71-7.25-4-9.83-8.15-13.57l6.26,3.42,1.27-3.93c-.42,3.59-.23,6.92,2.51,9.81l2.53-2.06-2.53,7.13,7.2-.68-2.19-2.41c.15-.39.52-1,.41-1.07-.95-1-2-1.92-3-2.87l.92-1.42,2.83,3.6a8.75,8.75,0,0,0,.11-9.29c2.24,2.15,2.68,4.72,2.15,7.64-.38,2-1.48,4.16,1.13,5.87.67.43.32,2.45.46,3.86H411.2c0,.47-.09,1,0,1,3.34,1.38,2.76,4.3,2.74,7,0,7.79-.05,15.57-.07,23.36H.41q0-16.35.09-32.68c0-6.51,0-13,0-19.52V673.05c5.77-2.64,10.9-3.39,15.67.29l-1.22.49.06.86,3.51-.24-.68-1.61c.33,0,.74-.19.81-.1.61.85,1.15,1.75,2.13,3.27,2,.13,3.08,1.61,2.09,4.64-.14.44.65,1.2,1,1.8.52.8,1.05,1.59,1.87,2.82-1.6.52-3,.89-4.26,1.44A2.67,2.67,0,0,0,20.09,688c-1,3.22-2.88,4.63-5.92,3.1l-2.53,3.14c2.76,1.43,3.59,6.17,8.37,6.17v-9.62l2.6.94c-3,2.37-2.32,5.49-1.95,8.27.1.78,2.73,1.94,3.95,1.69a5.4,5.4,0,0,1,5.51,1.82,26.5,26.5,0,0,0,3.93,2.79v-1c1.28-.3,2.65-1,3.83-.82,3.37.64,6.54.92,9.55-1.18s6.2-4.12,9.27-6.23c.38-.27.52-.88.77-1.33-.47-.24-.95-.7-1.42-.69-2.86.09-5.72.18-8.56.46a11.14,11.14,0,0,0-8,4.91c-.9,1.23-1.78,3-3.16,1.53-.91-.94-.83-3-.79-4.61,0-.5,1.22-1.13,2-1.44,4.32-1.75,8.63-3.5,13-5.05,1.15-.4,2.61.16,3.82-.15.63-.16,1.58-1.45,1.43-1.9-1.44-4.26-3-8.49-4.71-12.66-1-2.4-3.26-2.6-4.66-1.08-2.11,2.28-5,2.18-7.42,3.48a41,41,0,0,1-7.24,2.69,6.29,6.29,0,0,1-3.35.34,4.23,4.23,0,0,1-2.23-2.14c-.33-.72-.25-2.3.21-2.58.71-.45,1.9,0,2.87-.12,2.81-.21,5.62-.46,8.42-.77a2.26,2.26,0,0,0,1.19-.75c5.55-5.91,13.16-7.06,20.43-8.27,8.37-1.41,15.55-5.14,22.5-9.56,6.29-4,12.43-8.24,17.24-14.14a13.31,13.31,0,0,1,3.51-2.38,69.38,69.38,0,0,0,6.66-4c3-2.28,6.22-1.71,7.53,1.81,1.75,4.68,3.31,9.42,4.88,14.15a3.89,3.89,0,0,1,.12,2.26c-1.37,4.43-1.08,9.79-6.51,12a2.35,2.35,0,0,0-1.22,1.53c-.6,3.93-3.72,5.37-6.65,7-2.43,1.33-5,2.42-7.43,3.74-3.26,1.78-4.52,4.43-3.5,8,1,3.3,2.28,6.5,3.72,10.49l9.06-9.48,3.79,5.46.36-.25c-.85-1.78-1.77-3.53-2.51-5.36-.22-.51-.14-1.62.16-1.78a2.6,2.6,0,0,1,2.08-.08,12.6,12.6,0,0,1,6.36,7.46c.2.57-.49,1.76-1.09,2.28-3.77,3.21-7.64,6.32-11.27,9.88q5.65-2.13,11.31-4.28c2.77-1.06,5.45-2.44,8.3-3.13,2-.48,4.23,0,6.36,0h3.18c2.33,2.3.76,5.93-2.13,7.11-6.28,2.54-12.58,5-18.8,7.51,3,2,6.59,1.39,9.82.62,4.2-1,8.37-2.55,11.56-5.91a13.4,13.4,0,0,1,3.59-2.1c4-2.1,8.06-4.12,12-6.3a2.79,2.79,0,0,0,1.13-2c.14-2.49.06-5,.06-7.82l1.94.52c-.56,2.77-1.07,5.29-1.52,7.54l15.95-5.57c-1-2.94-2-5.73-3.17-9.1l7.09,2.82c1.77,3.51,2.24,3.25,5.51.7s7.17-4.11,10.79-6.12c.95-.53,1.87-1.13,2.8-1.7l-.38-.9c-3,.56-6,1.19-9,1.68-6,1-12,1.84-18,2.76-2.08.32-4.16.61-6.21,1.05s-3-.31-3.19-2.2q-.9-10.47-1.65-21c-.16-2.34,1.1-3,3.26-2.57,1.3.28,2.63.37,4,.56-2.85-.19-1.56,1.89-1.44,2.94s1.08,1.76,1.66,2.64l.74-.34-2.15.19c.27,1.76.53,3.39.84,5.36l4.42-3.91-2.46-.23,8.37-2.19c.07-.75.13-1.47.2-2.25l1.67.67V658l-6.19-.33v-.36c2.25,0,4.51.1,6.76,0,1.78-.11,2.48.54,2.19,2.53l-1.9-1.35c0,1.74,0,3,0,4.35,0,.08.88.28,1,.15a13.66,13.66,0,0,0,1-1.82c2.17,3.28,5.7.14,8.32,1.89l.53-1.14-6.08-4c3.4-.34,5.73,1,7.44,5.51,1.12,3,3.75,3.79,6,4.36a5.88,5.88,0,0,0,6.59-3.06c1.29-2.29,2.39-2,4.95-1,4.05,1.62,8.61,3.87,13.29,1.28-.64-3.69-1.24-4.09-5-3.48-2.41.38-4.86,1.09-7.1-.77h7.34l-4.57-2.85c4.42.66,8.24,6,12-.55l-2.41-1.43c1.52-.41,3.07-.38,3.83-1.14a6.57,6.57,0,0,0,1.21-3.67c.14-1.32-.34-2.7-.21-4,.09-.91.83-1.74,1.13-2.66s.34-1.9.61-2.83.54-2.65,1.1-2.78a3.87,3.87,0,0,1,3.29.79c1.17,1.32,1.75,1.25,3.24.4s3.41-.73,5-1.41a21.41,21.41,0,0,1,3.79-1.58c1.68-.37,2.11.9,2.61,2.31.23.66,1.62.9,2.49,1.33l.51-.73c.23,1.21.46,2.41.68,3.62l.83.37,3.39-5.88c2.57-1.49,5.86-4.61,10-.83l-.94,3.47,4.64,5.23-2.55,4.19-6.15,4.28c1.35,1.82,5,1.2,4.32,4.34-2.85-.84-5.78-1.08-7.9-2.52-1.94-1.32-3-3.94-4.48-6l-.7.26c0,.71,0,1.42,0,2.13.08,2.47-1.28,4-3.59,3.94-4.19,0-4.19,0-4.3,3.77l-5.68.44a8.19,8.19,0,0,0-1-1c-.06-.05-1,.67-.95.83a5.68,5.68,0,0,0,1,1.61c1.75,2.2,3.87,1.21,6,.79a14.17,14.17,0,0,1,3.67.1c.55,0,1.09.28,1.64.34,3,.3,6,.58,9.18.88v-2l15.21-2.45L266,657.6c1.29-3.41,2.52-3.73,5.74-1.36l-1.66,3.21,19.24-2.81,1.46,3.22c.61-.68,1-1.31,1.47-1.58,2.88-1.49,5.81-2.88,9.23-4.56-1.64,2.18-3.47,3.66-3.94,5.5s.3,4.24.49,6c-1.51,1.22-3.84-2-3.94,1.57-.69-1.1-1.37-2.21-2-3.31l-1,.43c.32,2.41.56,4.83,1,7.21.09.46,1.13,1,1.74,1,2.42.05,3.38-1.29,3.05-3.43Zm-92.13,2.34c.53-.39,1-1.11,1.58-1.11,1.89,0,3.79.22,5.68.29a24.38,24.38,0,0,0,2.56-.13c-2.76-1.89-5.29-4-8.68-1.86-1.2.77-1.67.1-1.45-1.83L203,665c.1-.34.34-.91.27-1-.45-.28-1.1-.73-1.46-.57a3,3,0,0,0-1.64,1.45c-.18.55.27,1.37.57,2s.86,1.49,1.3,2.24c-3.12,0-6.46-.82-9.3.05s-5.92,2.88-5.63,7c3.71,1.6,6.4.64,10-3.92L191.4,675l-.49-1.21c2.64-1,5.31-1.9,7.92-2.95A22.39,22.39,0,0,0,201.9,669.06Zm-133.82,48c-2.53-4.1-4.75-7.43-6.7-10.92-2.67-4.76-3.45-5-8-1.9a6.53,6.53,0,0,1-1.27.63l-15.36,5.55A9.93,9.93,0,0,0,45.3,712c1.34-.3,3-.64,4.12-.13a26.36,26.36,0,0,1,5.95,3.88,5.42,5.42,0,0,0,6.63.64,4.71,4.71,0,0,1,2.57-.17A30.71,30.71,0,0,1,68.08,717.09Zm116.79-52.54v-.67h-7.43l.89,3.12-4.24.25c.4,3.4.75,6.42,1.19,10.11l2.41-2.61c1.86,2.57,3,2.8,6.28.79l-6.69-2.43c-.17-1.1-.42-2.8-.71-4.78l1-.45c2,2.57,3.27,5.84,7.91,5.9-2.12-3,.64-6.92-3.23-8.84Zm-10.81,13.21c-.3-3.47-.56-6.57-.86-10.19l-6.6,11ZM302.6,666.92l.25,1.3c2.69.51,5.37,1.08,8.07,1.49.56.08,1.21-.47,1.81-.73-.41-.45-.75-1.13-1.25-1.3a33.27,33.27,0,0,0-5.76-1.52C304.73,666,303.64,666.64,302.6,666.92ZM164.42,680.35c8.41,1,10,.67,12.51-2.34-1.34.41-2.3.68-3.23,1-.66.24-1.73.93-1.87.77-1.69-2-3.7-.42-5.52-.56C165.71,679.19,165.05,680,164.42,680.35Zm160.77-7.85c-1.8-3.39-8.43-4.54-10.31-2.06Zm1.18.32,8.32,1.18C331.52,670.14,328.94,669.82,326.37,672.82ZM254,637.89a34.26,34.26,0,0,0,3.51,2,4.72,4.72,0,0,0,1.93-.07c-.1-.77.07-1.87-.37-2.25C257.37,636.07,255.65,636.34,254,637.89ZM85.29,713l6.2-6C88.18,707.47,86.23,709.32,85.29,713ZM4.62,691.23l-.22.41,1.32,1.19-.23.44-1.73-.46c0,.35,0,.7-.07,1.05l5.58.25L9.43,693Zm157-9.84c.62-3.14,1.59-6.31,0-9.3Z"/><path class="cls-1" d="M387.35,62.1l-3.8-2.86,6.47.48.32-.84a15.41,15.41,0,0,0-3.73-1.52c-2.71-.36-5.23-.7-6.91-3.31-.37-.58-1.87-.81-2.72-.62a19.35,19.35,0,0,0-5.08,1.86A8,8,0,0,1,366,56.48c-1.16-.25-2.57.72-4.05.64l16.46-4.76c-.35-.47-.47-.81-.64-.83-3.3-.47-6.74-1.67-9.89-1.14-3.49.59-6.77,2.17-10.52.46l-.95,14.49-.72.23c-1.31-2.62-4.48-3.66-5-7.12-.2-1.34-2.11-2.35-2.93-3.7-1.86-3-3.81-5.8-7.42-7-2.44-.84-3.45-.38-4.08,2.13-.36,1.44-.85,3.87-1.63,4-3,.55-6.07,3.13-9.12.16a8,8,0,0,0-1.13-.71c-.37,1.53-.69,2.87-1.07,4.42l-2.69-.57c.68-5,1.34-9.74,2.06-15-4.91.21-9-3.74-14.16-1.67-.87.35-2.36-.35-3.37-.91-3.08-1.7-6.26-2.67-9.79-1.89-4.26,1-6.8-.29-8.81-4.21l-.8,5.6,17,2.13c2.37.29,4.75.55,7.12.81,3.91.42,3.91.41,3.64,4.28a9.39,9.39,0,0,1,2.2.18,8.55,8.55,0,0,1,1.8,1.15c-.62.39-1.22,1.09-1.85,1.13q-14.16.81-28.31,1.41c-.72,0-1.48-.72-2.22-1.11.7-.42,1.39-1.17,2.12-1.21,6.86-.39,13.73-.66,20.6-1a6.65,6.65,0,0,0,3.51-.87l-26-3.06a39,39,0,0,1-.89,5c-.27.87-1.07,2.19-1.7,2.23-2.09.12-1.31-1.6-1.24-2.7s.45-2.45.53-3.68c.11-1.79.44-3.66-1.77-4.67-.47-.21-.67-1.07-.95-1.65-1-2.1-1.82-4.35-4.81-4.1a1.21,1.21,0,0,1-.83-.18c-4.3-4-10-3.13-15.1-4.26-2.58-.57-5.34-.78-7.85,1l1.86-.29-.79,3.73c2.21.11,4.43-3.41,6.55-.1,2-1,4-3.68,5.65.52.31.79,1.83,1.12,3.22,1.91L271.93,34V44l-15.16-3.32-.87,1.13L253.15,40l-.71.69,2.44,2.74c-3.7.59-1.9-3.49-3.67-4.9l-.7,4.42-1.69-3.44c-.4,1.48-.68,2.51-1.06,3.89-1.61-1.92-2.79-3.82-4.42-5.17-3-2.46-5.7-2.1-8.48.52a5.89,5.89,0,0,1-2.06.78l-.18-.68,3.46-2c-4.56-1.07-9.3-3.89-12.21,2.64l-.57-1,3-3.11-.34-.72-7.71,2.21c-1-4.88,2.85-1,4-2-3.61-3.09-9.66-2.77-13.17.59,1.89.66,3.89,1.23,5.76,2.06,2.45,1.09,4,3,4,5.78a6,6,0,0,1-4.1,5.65c-1.58.65-2.92,2-4.93,1.17a1.88,1.88,0,0,0-1.69.72c-1,4.11-4.44,7.91-1.73,12.18-2.35,1-4.44,1.85-6.57,2.66a2.74,2.74,0,0,1-1.67.21c-7.44-2.45-14.87-4.91-22.24-7.53-.66-.24-1.2-1.6-1.31-2.5-.56-4.35-.95-8.73-1.42-13.09-.07-.63-.25-1.24-.39-1.91-1.88,1-1.93,3.33-.58,13.4-2,.9-3.91,1.79-5.85,2.57a3.22,3.22,0,0,1-2,.14q-8.88-2.7-17.73-5.53c-1.09-.35-2.11-.9-3.2-1.26-1.57-.52-2.68-1.28-2.72-3.19a9.63,9.63,0,0,0-.81-2.6L137.17,46h0c1.27-2.1-.74-1.86-1.52-1.74-2.2.35-4.36,1-6.77,1.65l1.19,2.26-4.34.87.89-3.52c-2.35.54-4.52.59-6.2,1.53-2.32,1.28-4.27,3.23-6.51,5,1.32,3.28.15,6.74-1.83,10.48,3.64-.86,6,0,8.22,2.48,1.86,2,4.5,3.38,7.15,5.28-.22,1.51-.52,3.64-.76,5.29l-11.46,4.77c-.52-3.08-2.85-.46-4.41-1.39l4.36-1.08-.32-2.17H111l-.08-.64,4-.47.08-.37-4.39-.68.06-.71,4.06.39c-3.29.39-6.15-3.82-9.73-.91-.4.32-1.46,0-2.15-.23-1.27-.4-2.48-1-3.74-1.45-4.82-1.73-4.82-1.72-7.38,1.75l-8.5.53,1.61,2.42-3.12.6a19.07,19.07,0,0,0,.67-2.24c.53-3.59-.18-4.24-3.65-3.58-2.5.47-5.27.39-6,3.79-.08.37-1.09.74-1.7.79-2.92.22-5.84.41-8.77.47-1.44,0-2.34.16-3,1.84-1,2.76-2.86,5.06-6,5.75a1.43,1.43,0,0,0-.76.37c-3.62,4.15-8.79,4.2-13.62,5.09-.61.11-1.34-.45-1.92-.66l-2.57,2.84,2.24,1-.23.64-4.63-1.66c.27,1.69.52,3.26.78,4.86l2.78,4.39a9.37,9.37,0,0,0,2.27.15c1.92-.26,3.66-.38,4.53-2.92,2.3-6.72,8.64-9.5,14.29-6.64a9.44,9.44,0,0,1,5,6.58c1.94,8-2.44,13.64-10.47,13.36a9.35,9.35,0,0,1-8.71-5.93c-1.37-3.07-2-3.39-5.35-2.41-.54.16-1.09.26-1.59.38-.82,2.56-1.61,5-2.51,7.9-4.88.7-10.16,1.44-15.42,2.24a16.47,16.47,0,0,0-2.58.83l1.55,2.55c-2,3-3.12,3.11-5.89.34l1.64-2.15C8.92,112.47,4,115,4.27,117.78l-.74.25c-.31-.93-.62-1.86-.94-2.79l-.38.2c-.55-1-1.58-2-1.58-3.06Q.51,62.67.59,13c0-.56.07-1.12.12-1.89H413.8c.05.66.15,1.47.15,2.28,0,16.05,0,32.1-.05,48.14a6.68,6.68,0,0,1-1.34,3.08,10.55,10.55,0,0,0-1.65,2.56l2.67-1.2.46.44A17,17,0,0,1,412.76,68c-.92.91-1.89,1.77-2.84,2.65l3.93,1.73L409,75.29l-.91-.34c3.07-1.9.86-3-.36-4.73l-7.51,5.94.48.76,5.66-3-.2,2.09-7.93,2.52,4.2-7.66-.62-.6-5.17,4.28,1-2.51c-1.82,0-1.82,0-5.16,4.29l1.92-4.72-4.25-.3c-1.16-2.3-3.74-2-6.4-2l7.72-2.81-.9-2.44-5.39,2.07c-.38-.27-.91-.71-1.49-1.07a10.2,10.2,0,0,0-11-.2c-1.05.58-2.55.34-3.92.29,1.62-1.22,2.56-3.11,5.47-2.35,3.31.86,6.89.79,10.36.84.92,0,1.86-1.06,2.79-1.63-.09.68-.17,1.36-.39,3.05l4.17-3.68-.49-.75ZM117.28,63.78l-.44-1.08-14,2.17,1-2.79c-1,.68-1.57.89-1.64,1.21-.63,2.95-2.43,3.63-5.2,3.11-.77-.14-1.69.56-2.54.87l.19.81c2.69-.24,5.39-.42,8.07-.74,1.57-.19,2.86-.26,4,1.22a3.76,3.76,0,0,0,2.94.71,61.31,61.31,0,0,0,6.2-1.59l-4.75-.55,0-.42,5.35-.25-2.06-.8Zm95.39-16.13a4.35,4.35,0,0,0,4.49-4.46,4.43,4.43,0,0,0-4.65-4.63,6.18,6.18,0,0,0-3.46,1.68,4.84,4.84,0,0,0-1,3.1A4.36,4.36,0,0,0,212.67,47.65ZM400.94,67.81c3.2-.35,5.76-1.43,7.5-5.06a31.17,31.17,0,0,0-4,.73c-3.29,1.08-6.09,3.31-9.66,3.88-1.17.18-2.15,1.52-3.71,2.7C397.41,71.41,400.86,70.54,400.94,67.81Zm2.55-5.72L403.43,61c-2.77,0-5.54.13-8.3,0-1.67-.1-3.3-.19-3.47,1.83-.08,1.07.78,2.22,1.28,3.51a29.07,29.07,0,0,1,2.95-2.68c.66-.42,1.75-.92,2.3-.65C400.36,64,401.94,63.31,403.49,62.09Zm6.83,1.36-6.56,6.9.57.55C407.18,69.28,410.34,68,410.32,63.45Z"/><path d="M386.77,51,383,48.18l6.46.48.32-.84A15.41,15.41,0,0,0,386,46.3c-2.7-.36-5.23-.7-6.91-3.31-.37-.58-1.87-.81-2.72-.62a19.35,19.35,0,0,0-5.08,1.86,8,8,0,0,1-5.92,1.19c-1.15-.25-2.57.72-4,.64l16.45-4.76c-.34-.47-.46-.81-.63-.83-3.31-.47-6.75-1.67-9.89-1.14-3.49.59-6.78,2.17-10.52.46l-1,14.49-.71.23c-1.31-2.62-4.48-3.66-5-7.12-.21-1.34-2.11-2.35-2.94-3.7-1.85-3-3.81-5.8-7.41-7-2.45-.84-3.45-.38-4.08,2.13-.36,1.44-.86,3.87-1.64,4-3,.55-6.07,3.13-9.12.16a6.93,6.93,0,0,0-1.13-.71c-.37,1.53-.69,2.87-1.06,4.42L320,46.11c.68-5,1.34-9.74,2.06-15-4.91.21-9-3.74-14.16-1.67-.87.35-2.36-.35-3.37-.91-3.09-1.7-6.27-2.67-9.79-1.89-4.27.95-6.8-.29-8.81-4.21l-.8,5.6,17,2.13c2.37.29,4.74.55,7.12.81,3.91.42,3.91.41,3.63,4.28a9.35,9.35,0,0,1,2.2.18,8.07,8.07,0,0,1,1.8,1.15c-.61.39-1.21,1.09-1.85,1.13q-14.14.81-28.3,1.41c-.73,0-1.48-.72-2.23-1.11.71-.42,1.4-1.17,2.12-1.21,6.87-.39,13.74-.66,20.61-1a6.68,6.68,0,0,0,3.51-.87l-26.05-3.06a40.87,40.87,0,0,1-.88,5c-.27.87-1.08,2.19-1.7,2.23-2.09.12-1.32-1.6-1.24-2.7s.45-2.45.53-3.68c.11-1.79.44-3.66-1.77-4.67-.47-.21-.68-1.07-.95-1.65-1-2.1-1.82-4.35-4.81-4.1a1.2,1.2,0,0,1-.83-.18c-4.31-4-10-3.13-15.1-4.26-2.58-.57-5.35-.78-7.85,1l1.86-.29c-.27,1.27-.51,2.4-.8,3.73,2.22.11,4.44-3.41,6.56-.1,2-1,4-3.68,5.64.52.31.79,1.83,1.12,3.23,1.91l4.79-1.79v10l-15.17-3.32-.86,1.13-2.75-1.82-.71.69,2.44,2.74c-3.7.59-1.9-3.49-3.68-4.9l-.69,4.42-1.69-3.44c-.41,1.48-.69,2.51-1.06,3.89-1.62-1.92-2.79-3.82-4.43-5.17-3-2.46-5.69-2.1-8.47.52a6,6,0,0,1-2.07.78l-.18-.68,3.47-2c-4.56-1.07-9.31-3.89-12.21,2.64l-.58-1,3-3.11-.33-.72-7.72,2.21c-1-4.88,2.85-1,4-2-3.6-3.09-9.66-2.77-13.17.59,1.9.66,3.89,1.23,5.77,2.06,2.45,1.09,4,3,4,5.78a6,6,0,0,1-4.1,5.65c-1.59.65-2.93,2-4.93,1.16a1.9,1.9,0,0,0-1.69.73c-1.05,4.11-4.44,7.91-1.73,12.18-2.35,1-4.45,1.85-6.57,2.66a2.77,2.77,0,0,1-1.68.21c-7.43-2.45-14.86-4.91-22.23-7.53-.67-.24-1.2-1.6-1.32-2.5-.56-4.35-.94-8.73-1.41-13.09-.07-.63-.26-1.24-.4-1.91-1.87,1-1.93,3.33-.57,13.4-2,.9-3.92,1.79-5.85,2.57a3.22,3.22,0,0,1-2,.14c-5.93-1.8-11.84-3.66-17.74-5.53-1.08-.35-2.11-.9-3.19-1.26-1.57-.52-2.69-1.28-2.72-3.19a10,10,0,0,0-.81-2.6l-2.71,1.62h0c1.27-2.1-.73-1.86-1.51-1.74-2.21.35-4.36,1-6.77,1.65l1.18,2.26-4.33.87.89-3.52c-2.35.54-4.52.59-6.21,1.53-2.32,1.28-4.27,3.23-6.5,5,1.31,3.28.15,6.74-1.84,10.48,3.64-.86,6,0,8.23,2.48,1.85,2,4.5,3.38,7.15,5.28l-.77,5.29-11.46,4.77c-.51-3.08-2.84-.46-4.4-1.39l4.36-1.08-.33-2.17h-3.91l-.09-.64,4-.47.08-.37-4.4-.68.07-.71,4.06.39c-3.3.39-6.15-3.82-9.73-.91-.4.32-1.47,0-2.16-.23-1.27-.4-2.47-1-3.73-1.45-4.82-1.73-4.82-1.72-7.38,1.75l-8.51.53,1.62,2.42-3.12.6a18.72,18.72,0,0,0,.66-2.24c.53-3.59-.17-4.24-3.64-3.58-2.5.47-5.28.39-6,3.79-.07.37-1.09.74-1.69.79-2.92.22-5.85.41-8.77.47-1.44,0-2.35.16-3,1.84-1,2.76-2.87,5.06-6,5.75a1.5,1.5,0,0,0-.77.37c-3.62,4.15-8.79,4.2-13.61,5.09-.61.11-1.35-.45-1.92-.66l-2.58,2.84,2.25,1-.23.64L31.14,79.3c.27,1.69.52,3.26.77,4.86.8,1.26,1.7,2.66,2.79,4.39A9.32,9.32,0,0,0,37,88.7c1.92-.26,3.67-.38,4.54-2.92,2.3-6.72,8.64-9.5,14.29-6.64a9.47,9.47,0,0,1,5.05,6.58c1.93,8-2.44,13.64-10.47,13.36a9.33,9.33,0,0,1-8.71-5.93c-1.37-3.07-2-3.39-5.35-2.41-.54.16-1.09.26-1.6.38-.81,2.56-1.6,5-2.51,7.9-4.87.7-10.15,1.44-15.42,2.24a16,16,0,0,0-2.57.83l1.54,2.55c-2,3-3.11,3.11-5.89.34l1.64-2.15c-3.15-1.42-8.07,1.09-7.81,3.89L3,107,2,104.18l-.39.2c-.54-1-1.57-2-1.57-3.06Q-.06,51.61,0,1.89C0,1.33.09.77.14,0H413.23c0,.66.15,1.47.15,2.28,0,16,0,32.1-.06,48.14A6.58,6.58,0,0,1,412,53.5a11.18,11.18,0,0,0-1.65,2.56l2.68-1.2.46.44a17.1,17.1,0,0,1-1.29,1.63c-.91.91-1.89,1.77-2.84,2.64l3.93,1.74-4.82,2.92-.91-.34c3.06-1.9.86-3-.37-4.73l-7.5,5.94.47.76,5.67-3-.2,2.09-7.93,2.52,4.2-7.66-.62-.6-5.17,4.28,1-2.51c-1.81,0-1.81,0-5.16,4.28l1.92-4.71-4.24-.3c-1.17-2.3-3.74-1.95-6.41-2L391,55.44,390.06,53l-5.39,2.07c-.38-.27-.91-.71-1.49-1.07a10.18,10.18,0,0,0-11-.2c-1.05.58-2.56.34-3.92.29,1.62-1.22,2.56-3.11,5.47-2.35,3.31.86,6.89.79,10.36.84.92,0,1.85-1.06,2.78-1.64-.08.69-.17,1.37-.38,3.06l4.17-3.68-.5-.75ZM116.71,52.72l-.44-1.08-14,2.17,1-2.79c-1,.68-1.57.89-1.63,1.21-.63,3-2.44,3.63-5.2,3.11-.77-.14-1.7.56-2.55.87L94,57c2.69-.24,5.38-.42,8.06-.74,1.57-.19,2.86-.26,4,1.22a3.76,3.76,0,0,0,2.94.71,60.64,60.64,0,0,0,6.2-1.59l-4.75-.55v-.42l5.35-.25-2.06-.81C114.69,54,115.7,53.37,116.71,52.72Zm95.38-16.13a4.35,4.35,0,0,0,4.49-4.46,4.42,4.42,0,0,0-4.64-4.63,6.24,6.24,0,0,0-3.47,1.68,4.9,4.9,0,0,0-1,3.1A4.37,4.37,0,0,0,212.09,36.59ZM400.36,56.75c3.21-.35,5.76-1.43,7.5-5.06a31,31,0,0,0-3.95.73c-3.29,1.08-6.1,3.31-9.66,3.88-1.17.18-2.16,1.52-3.71,2.7C396.84,60.35,400.29,59.48,400.36,56.75ZM402.92,51,402.85,50c-2.76,0-5.54.13-8.29,0-1.67-.1-3.31-.19-3.47,1.83-.09,1.07.78,2.22,1.28,3.51a29.07,29.07,0,0,1,2.95-2.68c.66-.42,1.75-.92,2.29-.65C399.78,53,401.37,52.25,402.92,51Zm6.82,1.37-6.56,6.9.57.55C406.61,58.22,409.77,56.91,409.74,52.39Z"/></g></g></svg>